<svg xmlns="http://www.w3.org/2000/svg" viewBox="0 0 200 200">
  <defs>
    <pattern id="dotPattern" width="5" height="5" patternUnits="userSpaceOnUse">
      <circle cx="2.5" cy="2.5" r="0.5" fill="white" opacity="0.3"/>
    </pattern>
    
    <pattern id="mainPattern" width="100" height="100" patternUnits="userSpaceOnUse">
      <rect width="100" height="100" fill="#0066cc"/>
      <rect width="100" height="100" fill="url(#dotPattern)"/>
      
      <g transform="translate(50, 50)">
        <circle cx="0" cy="0" r="40" fill="none" stroke="white" stroke-width="2.5"/>
        <circle cx="0" cy="0" r="34" fill="none" stroke="white" stroke-width="2"/>
        <circle cx="0" cy="0" r="28" fill="none" stroke="white" stroke-width="1.5"/>
        <circle cx="0" cy="0" r="22" fill="none" stroke="white" stroke-width="1.5"/>
        <circle cx="0" cy="0" r="16" fill="none" stroke="white" stroke-width="1"/>
        
        <circle cx="0" cy="0" r="12" fill="none" stroke="white" stroke-width="1.5"/>
        <circle cx="0" cy="0" r="8" fill="none" stroke="white" stroke-width="1"/>
        <circle cx="0" cy="0" r="4" fill="white"/>
        
        <g stroke="white" stroke-width="1.2">
          <line x1="0" y1="0" x2="12" y2="0"/>
          <line x1="0" y1="0" x2="-12" y2="0"/>
          <line x1="0" y1="0" x2="0" y2="12"/>
          <line x1="0" y1="0" x2="0" y2="-12"/>
          <line x1="0" y1="0" x2="8.5" y2="8.5"/>
          <line x1="0" y1="0" x2="-8.5" y2="-8.5"/>
          <line x1="0" y1="0" x2="8.5" y2="-8.5"/>
          <line x1="0" y1="0" x2="-8.5" y2="8.5"/>
        </g>
      </g>
    </pattern>
  </defs>
  
  <rect width="200" height="200" fill="url(#mainPattern)"/>
  
  <rect width="400" height="400" fill="url(#mainPattern)" transform="scale(0.5)"/>
</svg>